<?xml version="1.0" encoding="UTF-8" standalone="no"?>
<!DOCTYPE svg PUBLIC "-//W3C//DTD SVG 1.1//EN" "http://www.w3.org/Graphics/SVG/1.1/DTD/svg11.dtd">
<svg width="100%" height="100%" viewBox="0 0 800 800" version="1.1" xmlns="http://www.w3.org/2000/svg" xmlns:xlink="http://www.w3.org/1999/xlink" xml:space="preserve" xmlns:serif="http://www.serif.com/" style="fill-rule:evenodd;clip-rule:evenodd;stroke-linejoin:round;stroke-miterlimit:2;">
    <g>
        <path d="M575,448.385C568.577,413.953 555.863,381.752 538.094,353.015C541.634,351.092 545.69,350 550,350C563.8,350 575,361.2 575,375L575,397.75C637.675,387.15 687.15,337.675 697.75,275L675,275C661.2,275 650,263.8 650,250C650,236.2 661.2,225 675,225L697.75,225C687.15,162.325 637.675,112.85 575,102.25L575,125C575,138.8 563.8,150 550,150C536.2,150 525,138.8 525,125L525,102.25C462.325,112.85 412.85,162.325 402.25,225L425,225C438.8,225 450,236.2 450,250C450,254.31 448.908,258.366 446.985,261.906C418.248,244.137 386.047,231.423 351.615,225L351.725,225C363.025,134.575 434.575,63.025 525,51.725L525,25C525,11.2 536.2,0 550,0C563.8,0 575,11.2 575,25L575,51.725C665.425,63.025 736.975,134.575 748.275,225L775,225C788.8,225 800,236.2 800,250C800,263.8 788.8,275 775,275L748.275,275C736.975,365.425 665.425,436.975 575,448.275L575,448.385ZM575,250C575,263.8 563.8,275 550,275C536.2,275 525,263.8 525,250C525,236.2 536.2,225 550,225C563.8,225 575,236.2 575,250Z"/>
        <g id="target" transform="matrix(0.75,0,0,0.75,-7320,-230170)">
            <path d="M10200,307560C10200,307582 10182.1,307600 10160,307600C10137.9,307600 10120,307582 10120,307560C10120,307538 10137.9,307520 10160,307520C10182.1,307520 10200,307538 10200,307560M10360,307600L10396.4,307600C10379.4,307700 10300.3,307779 10200,307796L10200,307760C10200,307738 10182.1,307720 10160,307720C10137.9,307720 10120,307738 10120,307760L10120,307796C10019.7,307779 9940.56,307700 9923.6,307600L9960,307600C9982.08,307600 10000,307582 10000,307560C10000,307538 9982.08,307520 9960,307520L9923.6,307520C9940.56,307420 10019.7,307341 10120,307324L10120,307360C10120,307382 10137.9,307400 10160,307400C10182.1,307400 10200,307382 10200,307360L10200,307324C10300.3,307341 10379.4,307420 10396.4,307520L10360,307520C10337.9,307520 10320,307538 10320,307560C10320,307582 10337.9,307600 10360,307600M10520,307520L10477.2,307520C10459.2,307375 10344.7,307261 10200,307243L10200,307200C10200,307178 10182.1,307160 10160,307160C10137.9,307160 10120,307178 10120,307200L10120,307243C9975.32,307261 9860.84,307375 9842.76,307520L9800,307520C9777.92,307520 9760,307538 9760,307560C9760,307582 9777.92,307600 9800,307600L9842.76,307600C9860.84,307745 9975.32,307859 10120,307877L10120,307920C10120,307942 10137.9,307960 10160,307960C10182.1,307960 10200,307942 10200,307920L10200,307877C10344.7,307859 10459.2,307745 10477.2,307600L10520,307600C10542.1,307600 10560,307582 10560,307560C10560,307538 10542.1,307520 10520,307520"/>
        </g>
    </g>
</svg>
